<svg width="40" height="120" viewBox="0 0 40 120" fill="none" xmlns="http://www.w3.org/2000/svg">
<path d="M0 117.333L0 120H40V117.333H0Z" fill="black"/>
<path d="M0 114.667L0 116H40V114.667H0Z" fill="black"/>
<path d="M0 110.667L0 112H40V110.667H0Z" fill="black"/>
<path d="M0 104L0 105.333H40V104H0Z" fill="black"/>
<path d="M0 97.3334L0 98.6667H40V97.3334H0Z" fill="black"/>
<path d="M0 93.3333L0 96H40V93.3333H0Z" fill="black"/>
<path d="M0 89.3334L0 90.6667H40V89.3334H0Z" fill="black"/>
<path d="M0 85.3334L0 86.6667H40V85.3334H0Z" fill="black"/>
<path d="M0 81.3333L0 84H40V81.3333H0Z" fill="black"/>
<path d="M0 73.3333L0 76H40V73.3333H0Z" fill="black"/>
<path d="M0 66.6667L0 68H40V66.6667H0Z" fill="black"/>
<path d="M0 64L0 65.3333H40V64H0Z" fill="black"/>
<path d="M0 60L0 61.3333H40V60H0Z" fill="black"/>
<path d="M0 50.6667L0 56H40V50.6667H0Z" fill="black"/>
<path d="M0 48L0 49.3333H40V48H0Z" fill="black"/>
<path d="M0 44L0 46.6667H40V44H0Z" fill="black"/>
<path d="M0 37.3334L0 38.6667H40V37.3334H0Z" fill="black"/>
<path d="M0 34.6667L0 36H40V34.6667H0Z" fill="black"/>
<path d="M0 30.6667L0 32H40V30.6667L0 30.6667Z" fill="black"/>
<path d="M0 25.3334L0 26.6667L40 26.6667V25.3334L0 25.3334Z" fill="black"/>
<path d="M0 20L0 22.6667L40 22.6667V20L0 20Z" fill="black"/>
<path d="M0 14.6666L0 17.3333L40 17.3333V14.6666L0 14.6666Z" fill="black"/>
<path d="M0 6.66669L0 10.6667L40 10.6667V6.66669L0 6.66669Z" fill="black"/>
<path d="M0 3.99998L0 5.33331L40 5.33331V3.99998L0 3.99998Z" fill="black"/>
<path d="M0 2.02656e-05L0 2.66669L40 2.66669V2.02656e-05L0 2.02656e-05Z" fill="black"/>
</svg>
