<svg width="40" height="120" viewBox="0 0 40 120" fill="none" xmlns="http://www.w3.org/2000/svg">
<path d="M40 2.66667L40 0L0 -1.74846e-06L-1.16564e-07 2.66666L40 2.66667Z" fill="black"/>
<path d="M40 5.33333L40 4L0 4L-5.82819e-08 5.33333L40 5.33333Z" fill="black"/>
<path d="M40 9.33333L40 8L0 8L-5.82819e-08 9.33333L40 9.33333Z" fill="black"/>
<path d="M40 16L40 14.6667L0 14.6667L-5.82819e-08 16L40 16Z" fill="black"/>
<path d="M40 22.6666L40 21.3333L0 21.3333L-5.82819e-08 22.6666L40 22.6666Z" fill="black"/>
<path d="M40 26.6667L40 24L0 24L-1.16564e-07 26.6667L40 26.6667Z" fill="black"/>
<path d="M40 30.6667L40 29.3333L0 29.3333L-5.82819e-08 30.6667L40 30.6667Z" fill="black"/>
<path d="M40 40L40 34.6667L0 34.6667L-2.33127e-07 40L40 40Z" fill="black"/>
<path d="M40 42.6667L40 41.3333L0 41.3333L-5.82819e-08 42.6667L40 42.6667Z" fill="black"/>
<path d="M40 49.3333L40 44L0 44L-2.33127e-07 49.3333L40 49.3333Z" fill="black"/>
<path d="M40 54.6667L40 50.6667L0 50.6667L-1.74846e-07 54.6667L40 54.6667Z" fill="black"/>
<path d="M40 57.3333L40 56L0 56L-5.82819e-08 57.3333L40 57.3333Z" fill="black"/>
<path d="M40 64L40 58.6667L0 58.6667L-2.33127e-07 64L40 64Z" fill="black"/>
<path d="M40 69.3333L40 65.3333L0 65.3333L-1.74846e-07 69.3333L40 69.3333Z" fill="black"/>
<path d="M40 72L40 70.6667L0 70.6667L-5.82819e-08 72L40 72Z" fill="black"/>
<path d="M40 74.6667L40 73.3333L0 73.3333L-5.82819e-08 74.6667L40 74.6667Z" fill="black"/>
<path d="M40 78.6667L40 77.3333L0 77.3333L-5.82819e-08 78.6667L40 78.6667Z" fill="black"/>
<path d="M40 82.6667L40 80L0 80L-1.16564e-07 82.6667L40 82.6667Z" fill="black"/>
<path d="M40 92L40 88L0 88L-1.74846e-07 92L40 92Z" fill="black"/>
<path d="M40 98.6667L40 93.3333L0 93.3333L-2.33127e-07 98.6667L40 98.6667Z" fill="black"/>
<path d="M40 101.333L40 100L0 100L-5.82819e-08 101.333L40 101.333Z" fill="black"/>
<path d="M40 105.333L40 102.667L0 102.667L-1.16564e-07 105.333L40 105.333Z" fill="black"/>
<path d="M40 113.333L40 109.333L0 109.333L-1.74846e-07 113.333L40 113.333Z" fill="black"/>
<path d="M40 116L40 114.667L0 114.667L-5.82819e-08 116L40 116Z" fill="black"/>
<path d="M40 120L40 117.333L0 117.333L-1.16564e-07 120L40 120Z" fill="black"/>
</svg>
