<svg width="34" height="34" viewBox="0 0 34 34" fill="none" xmlns="http://www.w3.org/2000/svg">
<path d="M16.7908 21.9473C16.8157 21.979 16.8474 22.0047 16.8837 22.0223C16.9199 22.04 16.9597 22.0492 17 22.0492C17.0403 22.0492 17.0801 22.04 17.1163 22.0223C17.1526 22.0047 17.1843 21.979 17.2092 21.9473L20.9279 17.2424C21.0641 17.0697 20.9412 16.8141 20.7188 16.8141H18.2584V5.57812C18.2584 5.43203 18.1389 5.3125 17.9928 5.3125H16.0006C15.8545 5.3125 15.735 5.43203 15.735 5.57812V16.8107H13.2812C13.0588 16.8107 12.9359 17.0664 13.0721 17.2391L16.7908 21.9473ZM29.1523 20.7852H27.1602C27.0141 20.7852 26.8945 20.9047 26.8945 21.0508V26.1641H7.10547V21.0508C7.10547 20.9047 6.98594 20.7852 6.83984 20.7852H4.84766C4.70156 20.7852 4.58203 20.9047 4.58203 21.0508V27.625C4.58203 28.2127 5.05684 28.6875 5.64453 28.6875H28.3555C28.9432 28.6875 29.418 28.2127 29.418 27.625V21.0508C29.418 20.9047 29.2984 20.7852 29.1523 20.7852Z" fill="white"/>
</svg>
