<svg width="40" height="120" viewBox="0 0 40 120" fill="none" xmlns="http://www.w3.org/2000/svg">
<path d="M0 117.857L0 120H40V117.857H0Z" fill="black"/>
<path d="M0 115.714L0 116.786H40V115.714H0Z" fill="black"/>
<path d="M0 112.5L0 113.571H40V112.5H0Z" fill="black"/>
<path d="M0 107.143L0 108.214H40V107.143H0Z" fill="black"/>
<path d="M0 99.6429L0 103.929H40V99.6429H0Z" fill="black"/>
<path d="M0 97.5L0 98.5714H40V97.5H0Z" fill="black"/>
<path d="M0 94.2857L0 96.4286H40V94.2857H0Z" fill="black"/>
<path d="M0 91.0715L0 92.1429H40V91.0715H0Z" fill="black"/>
<path d="M0 88.9286L0 90H40V88.9286H0Z" fill="black"/>
<path d="M0 82.5L0 84.6429H40V82.5H0Z" fill="black"/>
<path d="M0 79.2857L0 81.4286H40V79.2857H0Z" fill="black"/>
<path d="M0 73.9286L0 78.2143H40V73.9286H0Z" fill="black"/>
<path d="M0 68.5714L0 72.8571H40V68.5714H0Z" fill="black"/>
<path d="M0 64.2857L0 67.5H40V64.2857H0Z" fill="black"/>
<path d="M0 62.1429L0 63.2143H40V62.1429H0Z" fill="black"/>
<path d="M0 60L0 61.0714H40V60H0Z" fill="black"/>
<path d="M0 57.8572L0 58.9286H40V57.8572H0Z" fill="black"/>
<path d="M0 51.4286L0 55.7143H40V51.4286H0Z" fill="black"/>
<path d="M0 48.2143L0 49.2857H40V48.2143H0Z" fill="black"/>
<path d="M0 41.7857L0 43.9286H40V41.7857H0Z" fill="black"/>
<path d="M0 39.6429L0 40.7143H40V39.6429H0Z" fill="black"/>
<path d="M0 36.4286L0 37.5H40V36.4286H0Z" fill="black"/>
<path d="M0 31.0715L0 32.1429H40V31.0715L0 31.0715Z" fill="black"/>
<path d="M0 27.8571L0 30L40 30V27.8571L0 27.8571Z" fill="black"/>
<path d="M0 22.5L0 25.7143L40 25.7143V22.5L0 22.5Z" fill="black"/>
<path d="M0 20.3572L0 21.4286L40 21.4286V20.3572L0 20.3572Z" fill="black"/>
<path d="M0 17.1428L0 19.2857L40 19.2857V17.1428L0 17.1428Z" fill="black"/>
<path d="M0 11.7857L0 13.9286L40 13.9286V11.7857L0 11.7857Z" fill="black"/>
<path d="M0 5.35713L0 8.57141L40 8.57141V5.35713L0 5.35713Z" fill="black"/>
<path d="M0 3.21428L0 4.28571L40 4.28571V3.21428L0 3.21428Z" fill="black"/>
<path d="M0 2.6226e-05L0 2.14288L40 2.14288V2.6226e-05L0 2.6226e-05Z" fill="black"/>
</svg>
