<svg width="40" height="120" viewBox="0 0 40 120" fill="none" xmlns="http://www.w3.org/2000/svg">
<path d="M40 1.79104L40 0L0 -1.74846e-06L-7.82891e-08 1.79104L40 1.79104Z" fill="black"/>
<path d="M40 3.58208L40 2.68655L0 2.68655L-3.91445e-08 3.58207L40 3.58208Z" fill="black"/>
<path d="M40 6.26866L40 5.37314L0 5.37314L-3.91445e-08 6.26866L40 6.26866Z" fill="black"/>
<path d="M40 10.7463L40 9.85074L0 9.85074L-3.91445e-08 10.7463L40 10.7463Z" fill="black"/>
<path d="M40 15.2239L40 11.6418L0 11.6418L-1.56578e-07 15.2239L40 15.2239Z" fill="black"/>
<path d="M40 17.9104L40 17.0149L0 17.0149L-3.91445e-08 17.9104L40 17.9104Z" fill="black"/>
<path d="M40 20.597L40 19.7015L0 19.7015L-3.91445e-08 20.597L40 20.597Z" fill="black"/>
<path d="M40 25.0746L40 24.1791L0 24.1791L-3.91445e-08 25.0746L40 25.0746Z" fill="black"/>
<path d="M40 27.7612L40 25.9702L0 25.9702L-7.82891e-08 27.7612L40 27.7612Z" fill="black"/>
<path d="M40 30.4478L40 29.5522L0 29.5522L-3.91445e-08 30.4478L40 30.4478Z" fill="black"/>
<path d="M40 33.1343L40 32.2388L0 32.2388L-3.91445e-08 33.1343L40 33.1343Z" fill="black"/>
<path d="M40 38.5075L40 34.9254L0 34.9254L-1.56578e-07 38.5075L40 38.5075Z" fill="black"/>
<path d="M40 40.2985L40 39.403L0 39.403L-3.91445e-08 40.2985L40 40.2985Z" fill="black"/>
<path d="M40 45.6716L40 43.8806L0 43.8806L-7.82891e-08 45.6716L40 45.6716Z" fill="black"/>
<path d="M40 47.4627L40 46.5672L0 46.5672L-3.91445e-08 47.4627L40 47.4627Z" fill="black"/>
<path d="M40 50.1492L40 49.2537L0 49.2537L-3.91445e-08 50.1492L40 50.1492Z" fill="black"/>
<path d="M40 52.8358L40 51.9403L0 51.9403L-3.91445e-08 52.8358L40 52.8358Z" fill="black"/>
<path d="M40 58.209L40 56.4179L0 56.4179L-7.82891e-08 58.209L40 58.209Z" fill="black"/>
<path d="M40 60L40 59.1045L0 59.1045L-3.91445e-08 60L40 60Z" fill="black"/>
<path d="M40 62.6866L40 61.791L0 61.791L-3.91445e-08 62.6866L40 62.6866Z" fill="black"/>
<path d="M40 68.0597L40 66.2686L0 66.2686L-7.82891e-08 68.0597L40 68.0597Z" fill="black"/>
<path d="M40 70.7463L40 68.9552L0 68.9552L-7.82891e-08 70.7463L40 70.7463Z" fill="black"/>
<path d="M40 73.4328L40 72.5373L0 72.5373L-3.91445e-08 73.4328L40 73.4328Z" fill="black"/>
<path d="M40 75.2239L40 74.3284L0 74.3284L-3.91445e-08 75.2239L40 75.2239Z" fill="black"/>
<path d="M40 79.7015L40 78.806L0 78.806L-3.91445e-08 79.7015L40 79.7015Z" fill="black"/>
<path d="M40 82.3881L40 80.597L0 80.597L-7.82891e-08 82.3881L40 82.3881Z" fill="black"/>
<path d="M40 85.0746L40 84.1791L0 84.1791L-3.91445e-08 85.0746L40 85.0746Z" fill="black"/>
<path d="M40 89.5522L40 88.6567L0 88.6567L-3.91445e-08 89.5522L40 89.5522Z" fill="black"/>
<path d="M40 92.2388L40 91.3433L0 91.3433L-3.91445e-08 92.2388L40 92.2388Z" fill="black"/>
<path d="M40 97.6119L40 94.0298L0 94.0298L-1.56578e-07 97.6119L40 97.6119Z" fill="black"/>
<path d="M40 99.403L40 98.5075L0 98.5075L-3.91445e-08 99.403L40 99.403Z" fill="black"/>
<path d="M40 103.881L40 102.09L0 102.09L-7.82891e-08 103.881L40 103.881Z" fill="black"/>
<path d="M40 106.567L40 105.672L0 105.672L-3.91445e-08 106.567L40 106.567Z" fill="black"/>
<path d="M40 110.149L40 108.358L0 108.358L-7.82891e-08 110.149L40 110.149Z" fill="black"/>
<path d="M40 115.522L40 112.836L0 112.836L-1.17434e-07 115.522L40 115.522Z" fill="black"/>
<path d="M40 117.313L40 116.418L0 116.418L-3.91445e-08 117.313L40 117.313Z" fill="black"/>
<path d="M40 120L40 118.209L0 118.209L-7.82891e-08 120L40 120Z" fill="black"/>
</svg>
